<svg id="Layer_11" data-name="Layer 11" xmlns="http://www.w3.org/2000/svg" viewBox="0 0 688.6 132.77"><defs><style>.cls-1{fill:#fff;}</style></defs><path class="cls-1" d="M293.73,456.07H309.1l10,75.19h.28l10-75.19h14L328.63,553H308.41Z" transform="translate(-137.02 -438.59)"/><path class="cls-1" d="M355.22,548q-6-6.37-6-18v-51q0-11.64,6-18t17.17-6.37q11.22,0,17.17,6.37t5.95,18v51q0,11.63-5.95,18t-17.17,6.37Q361.17,554.39,355.22,548Zm25.06-17v-52.9q0-9.55-7.89-9.56t-7.9,9.56V531q0,9.56,7.9,9.55T380.28,531Z" transform="translate(-137.02 -438.59)"/><path class="cls-1" d="M405.76,456.07H421v83.09h25.07V553h-40.3Z" transform="translate(-137.02 -438.59)"/><path class="cls-1" d="M457.62,548.16q-5.75-6.24-5.75-17.59V478.5q0-11.36,5.75-17.58t16.69-6.24q10.94,0,16.68,6.24t5.75,17.58v10.25h-14.4V477.53q0-9-7.62-9t-7.61,9v54.15q0,8.87,7.61,8.86t7.62-8.86V516.86h14.4v13.71q0,11.35-5.75,17.59t-16.68,6.23Q463.36,554.39,457.62,548.16Z" transform="translate(-137.02 -438.59)"/><path class="cls-1" d="M517.65,456.07h20.63L554.07,553H538.84l-2.77-19.24V534H518.76L516,553H501.86Zm16.62,64.81L527.48,473h-.28l-6.64,47.92Z" transform="translate(-137.02 -438.59)"/><path class="cls-1" d="M561.41,456.07h19.11l14.81,58h.28v-58h13.57V553H593.53l-18.28-70.76H575V553H561.41Z" transform="translate(-137.02 -438.59)"/><path class="cls-1" d="M642.69,456.07H666q11.34,0,17,6.09T688.67,480v49q0,11.78-5.68,17.86T666,553H642.69Zm23,83.09a7.33,7.33,0,0,0,5.74-2.22c1.34-1.47,2-3.88,2-7.2V479.33q0-5-2-7.2a7.36,7.36,0,0,0-5.74-2.21h-7.76v69.24Z" transform="translate(-137.02 -438.59)"/><path class="cls-1" d="M697.67,456.07h15.51l-3.74,31.3h-8.17Z" transform="translate(-137.02 -438.59)"/><path class="cls-1" d="M728.13,548q-6-6.37-6-18v-51q0-11.64,6-18t17.17-6.37q11.22,0,17.17,6.37t6,18v51q0,11.63-6,18t-17.17,6.37Q734.08,554.39,728.13,548Zm25.06-17v-52.9q0-9.55-7.89-9.56t-7.89,9.56V531q0,9.56,7.89,9.55T753.19,531Z" transform="translate(-137.02 -438.59)"/><path class="cls-1" d="M778.67,456.07h22.58q11.76,0,17.17,5.47t5.4,16.82v6q0,15.09-10,19.11v.28a11.87,11.87,0,0,1,7.82,6.78Q824,515.62,824,524.2v17a66.9,66.9,0,0,0,.27,6.72,16.92,16.92,0,0,0,1.39,5H810.11a21.27,21.27,0,0,1-1.11-4.43,64.92,64.92,0,0,1-.28-7.47V523.37q0-6.64-2.14-9.28t-7.41-2.63h-5.26V553H778.67Zm20.78,41.54c3,0,5.33-.78,6.85-2.35s2.29-4.2,2.29-7.89v-7.48c0-3.51-.63-6.05-1.87-7.62s-3.21-2.35-5.89-2.35h-6.92v27.69Z" transform="translate(-137.02 -438.59)"/><path class="cls-1" d="M195.45,505.51c-1.15-1.1-2.11-2.36-3.33-3.39-.6-.51-2.35-2.08-3-.81-1,1.88,4.25,3.66,2.66,5.74-1,1.32-3.13-.37-3.78-1.23a9,9,0,0,1-1.27-5.62,18.62,18.62,0,0,0-.66-6.39c-.41-1.37-1-.37-1,.48a27.54,27.54,0,0,1-.71,3.62s-.5,2.85-.74,4.25a20,20,0,0,0-.41,3.53,7.53,7.53,0,0,0,.39,2.73,5.46,5.46,0,0,0,1.75,1.83,32.81,32.81,0,0,0,6.58,4c3.34,1.52,5.73,4.08,5.32,7.93A7.11,7.11,0,0,0,199.4,521a6.85,6.85,0,0,0,1.72-2.8,8.16,8.16,0,0,0-1-6.55A25.38,25.38,0,0,0,195.45,505.51Zm9.93,6.09a8.16,8.16,0,0,0-1,6.55,6.85,6.85,0,0,0,1.72,2.8,7.11,7.11,0,0,0,2.17,1.24c-.41-3.85,2-6.41,5.32-7.93a32.81,32.81,0,0,0,6.58-4,5.46,5.46,0,0,0,1.75-1.83,7.53,7.53,0,0,0,.39-2.73,20,20,0,0,0-.41-3.53c-.24-1.4-.74-4.25-.74-4.25a27.54,27.54,0,0,1-.71-3.62c-.07-.85-.62-1.85-1-.48a18.87,18.87,0,0,0-.66,6.39,9,9,0,0,1-1.27,5.62c-.65.86-2.76,2.55-3.78,1.23-1.59-2.08,3.62-3.86,2.66-5.74-.64-1.27-2.39.3-3,.81-1.21,1-2.18,2.29-3.33,3.39A25.38,25.38,0,0,0,205.38,511.6Z" transform="translate(-137.02 -438.59)"/><path class="cls-1" d="M209.71,495.34a6.89,6.89,0,1,1-6.89-6.89A6.89,6.89,0,0,1,209.71,495.34Zm-7.83,2.18a2,2,0,0,1-.33-.78l-1.46.16a3,3,0,0,0,.77,1.71,2.61,2.61,0,0,0,1.57.72v1h.81V499.3a2.7,2.7,0,0,0,1.71-.85,2.47,2.47,0,0,0,.61-1.71,2.28,2.28,0,0,0-.48-1.49,3.69,3.69,0,0,0-1.84-.94v-2.19a1.15,1.15,0,0,1,.68.9l1.41-.19a2.29,2.29,0,0,0-.67-1.34,2.41,2.41,0,0,0-1.42-.61v-.55h-.81v.55a2.38,2.38,0,0,0-1.54.72,2.18,2.18,0,0,0-.58,1.55,2.38,2.38,0,0,0,.51,1.54,3.12,3.12,0,0,0,1.61.95V498A1.71,1.71,0,0,1,201.88,497.52Zm.55-3.48a1.21,1.21,0,0,1-.54-.41.93.93,0,0,1-.18-.55.94.94,0,0,1,.2-.6,1.12,1.12,0,0,1,.52-.38Zm.81,1.84a1.45,1.45,0,0,1,.73.42,1,1,0,0,1,.22.64,1.11,1.11,0,0,1-.26.73,1.15,1.15,0,0,1-.69.39Z" transform="translate(-137.02 -438.59)"/><ellipse class="cls-1" cx="65.7" cy="10.33" rx="10.18" ry="10.33"/><path class="cls-1" d="M235.23,468.81a4.46,4.46,0,0,0-1.79-3c-15.42-11.31-21.17-9.15-21.17-9.15a13.49,13.49,0,0,1-9.55,4.47c-4.83-.34-7.11-2.45-7.11-2.45-2.3-2.07-3.74-2.18-3.74-2.18-4.89-.8-17.46,7.24-20.1,9.19a3.84,3.84,0,0,0-1.54,4.52,4.38,4.38,0,0,0,4.26,3c1.75-.15,8-4.81,8-4.81a4.56,4.56,0,0,1,6.35.86c1,1.28.85,6.1.85,6.1,13.59-6.39,26.08,0,26.08,0l.08-1.45a7.3,7.3,0,0,0,0-.81c-.11-4.24,1.9-5.15,1.9-5.15,3.41-1.18,5.17.47,6.64,1.41,1.14.72,3.71,2.5,4.81,3.27a4.05,4.05,0,0,0,1.86.72c2.89.32,4-2.81,4-2.81A3.84,3.84,0,0,0,235.23,468.81Z" transform="translate(-137.02 -438.59)"/><ellipse class="cls-1" cx="10.18" cy="65.91" rx="10.18" ry="10.33"/><path class="cls-1" d="M173.59,491.54l-1.45-.09-.81,0c-4.24.08-5.13-1.93-5.13-1.93-1.16-3.42.5-5.17,1.45-6.63.73-1.14,2.53-3.7,3.3-4.78a4.13,4.13,0,0,0,.74-1.86c.34-2.9-2.78-4-2.78-4a3.71,3.71,0,0,0-1.74-.17,4.37,4.37,0,0,0-3,1.76c-11.42,15.34-9.3,21.11-9.3,21.11a13.54,13.54,0,0,1,4.4,9.58c-.38,4.82-2.51,7.09-2.51,7.09-2.08,2.28-2.21,3.72-2.21,3.72-.83,4.89,7.12,17.52,9,20.17A3.85,3.85,0,0,0,168.1,537a4.39,4.39,0,0,0,3-4.25c-.13-1.75-4.75-8-4.75-8a4.57,4.57,0,0,1,.91-6.35c1.29-1,6.11-.8,6.11-.8C167.11,504,173.59,491.54,173.59,491.54Z" transform="translate(-137.02 -438.59)"/><path class="cls-1" d="M248.81,511.69s-2.11-2.28-2.45-7.11a13.49,13.49,0,0,1,4.47-9.55s2.16-5.75-9.15-21.17a4.42,4.42,0,0,0-3-1.79,3.84,3.84,0,0,0-1.74.17s-3.13,1.09-2.81,4a4.05,4.05,0,0,0,.72,1.86c.77,1.1,2.55,3.67,3.27,4.81.94,1.47,2.59,3.23,1.4,6.64,0,0-.9,2-5.14,1.9-.27,0-.54,0-.81,0l-1.45.09s6.39,12.48,0,26.08c0,0,4.82-.19,6.1.84a4.57,4.57,0,0,1,.86,6.36s-4.66,6.24-4.81,8a4.38,4.38,0,0,0,3,4.26,3.84,3.84,0,0,0,4.52-1.54c1.95-2.64,10-15.21,9.19-20.1C251,515.43,250.88,514,248.81,511.69Z" transform="translate(-137.02 -438.59)"/><ellipse class="cls-1" cx="121.51" cy="65.91" rx="10.18" ry="10.33"/><ellipse class="cls-1" cx="65.7" cy="122.44" rx="10.18" ry="10.33"/><path class="cls-1" d="M235.13,539.72a4.37,4.37,0,0,0-4.27-3c-1.75.14-8,4.81-8,4.81a4.57,4.57,0,0,1-6.35-.86c-1-1.29-.85-6.11-.85-6.11-13.59,6.39-26.08,0-26.08,0l-.08,1.45c0,.27,0,.54,0,.82.11,4.23-1.9,5.14-1.9,5.14-3.41,1.19-5.17-.47-6.64-1.4-1.14-.72-3.71-2.51-4.8-3.27a4.1,4.1,0,0,0-1.87-.73c-2.89-.32-4,2.81-4,2.81a3.71,3.71,0,0,0-.16,1.74,4.34,4.34,0,0,0,1.79,3c15.42,11.31,21.16,9.15,21.16,9.15a13.56,13.56,0,0,1,9.55-4.47c4.83.35,7.11,2.45,7.11,2.45,2.3,2.07,3.75,2.19,3.75,2.19,4.88.79,17.46-7.25,20.09-9.19A3.85,3.85,0,0,0,235.13,539.72Z" transform="translate(-137.02 -438.59)"/></svg>