<svg id="Layer_10" data-name="Layer 10" xmlns="http://www.w3.org/2000/svg" viewBox="0 0 415.11 418.53"><path d="M477.12,547.89c-3.62-3.46-6.67-7.46-10.51-10.7-1.87-1.59-7.4-6.54-9.43-2.55-3,5.92,13.39,11.54,8.38,18.09-3.2,4.18-9.86-1.15-11.88-3.87-3.66-4.93-4.23-11.78-4-17.7.27-7.17,0-13.25-2.09-20.16-1.28-4.31-3-1.17-3.23,1.51a86.16,86.16,0,0,1-2.25,11.41s-1.56,9-2.34,13.4a64.36,64.36,0,0,0-1.29,11.14c0,2.44.17,6.41,1.23,8.62,1.17,2.44,3.42,4.11,5.51,5.74A101.6,101.6,0,0,0,466,575.46c10.5,4.8,18,12.86,16.75,25,2.19-.89,5.11-2.15,6.85-3.9a21.68,21.68,0,0,0,5.43-8.81c2.35-7.25.43-14.11-3.07-20.65A79.87,79.87,0,0,0,477.12,547.89Zm31.3,19.2c-3.5,6.54-5.42,13.4-3.07,20.65a21.77,21.77,0,0,0,5.42,8.81c1.75,1.75,4.67,3,6.85,3.9-1.3-12.13,6.25-20.19,16.76-25a102.14,102.14,0,0,0,20.77-12.64c2.09-1.63,4.33-3.3,5.51-5.74,1.06-2.21,1.2-6.18,1.22-8.62a62.47,62.47,0,0,0-1.29-11.14l-2.33-13.4A86.16,86.16,0,0,1,556,512.51c-.2-2.68-2-5.82-3.24-1.51-2,6.91-2.35,13-2.09,20.16.22,5.92-.36,12.77-4,17.7-2,2.72-8.69,8-11.89,3.87-5-6.55,11.4-12.17,8.38-18.09-2-4-7.55,1-9.43,2.55-3.83,3.24-6.89,7.24-10.51,10.7A79.84,79.84,0,0,0,508.42,567.09Z" transform="translate(-292.94 -336.95)"/><path d="M522.08,515.82a21.72,21.72,0,1,1-21.72-21.72A21.72,21.72,0,0,1,522.08,515.82Zm-24.69,6.87a5.94,5.94,0,0,1-1.06-2.44l-4.61.49a9.43,9.43,0,0,0,2.44,5.39,8.18,8.18,0,0,0,5,2.28v3.21h2.56v-3.3a8.5,8.5,0,0,0,5.38-2.69,7.83,7.83,0,0,0,1.93-5.38,7.06,7.06,0,0,0-1.53-4.69c-1-1.22-2.95-2.21-5.78-3v-6.9a3.6,3.6,0,0,1,2.12,2.83l4.47-.59a7.43,7.43,0,0,0-2.12-4.23,7.59,7.59,0,0,0-4.47-1.91V500h-2.56v1.75a7.31,7.31,0,0,0-4.86,2.27,6.86,6.86,0,0,0-1.83,4.86,7.51,7.51,0,0,0,1.62,4.87,9.76,9.76,0,0,0,5.07,3v7.4A5,5,0,0,1,497.39,522.69Zm1.73-11a4,4,0,0,1-1.71-1.3,3,3,0,0,1-.56-1.74,3.1,3.1,0,0,1,.61-1.87,3.26,3.26,0,0,1,1.66-1.2Zm2.56,5.79a4.52,4.52,0,0,1,2.29,1.31,3.19,3.19,0,0,1,.7,2,3.48,3.48,0,0,1-.83,2.31,3.66,3.66,0,0,1-2.16,1.23Z" transform="translate(-292.94 -336.95)"/><ellipse cx="207.09" cy="32.57" rx="32.09" ry="32.57"/><path d="M602.5,432.22a13.84,13.84,0,0,0-5.65-9.47c-48.6-35.65-66.72-28.83-66.72-28.83C517.67,408.21,500,408,500,408c-15.22-1.09-22.41-7.73-22.41-7.73-7.26-6.51-11.8-6.88-11.8-6.88-15.41-2.5-55,22.83-63.35,29s-4.87,14.26-4.87,14.26c3.16,9.92,13.45,9.47,13.45,9.47,5.5-.45,25.18-15.16,25.18-15.16,11.64-8.12,20,2.71,20,2.71,3.25,4.06,2.67,19.24,2.67,19.24,42.85-20.14,82.21,0,82.21,0l.26-4.57c.05-.85.07-1.7.05-2.56-.35-13.35,6-16.21,6-16.21,10.75-3.74,16.29,1.47,20.93,4.41,3.6,2.28,11.7,7.9,15.15,10.31a12.79,12.79,0,0,0,5.87,2.29c9.13,1,12.6-8.86,12.6-8.86A11.93,11.93,0,0,0,602.5,432.22Z" transform="translate(-292.94 -336.95)"/><ellipse cx="32.09" cy="207.77" rx="32.09" ry="32.57"/><path d="M408.2,503.85l-4.57-.3c-.85-.05-1.7-.08-2.56-.07-13.35.25-16.17-6.1-16.17-6.1-3.66-10.78,1.59-16.29,4.57-20.9,2.31-3.59,8-11.64,10.42-15.07a12.81,12.81,0,0,0,2.33-5.86c1.08-9.12-8.77-12.66-8.77-12.66a11.8,11.8,0,0,0-5.47-.55,13.88,13.88,0,0,0-9.51,5.57c-36,48.35-29.31,66.52-29.31,66.52C363.36,527,363,544.62,363,544.62c-1.2,15.22-7.89,22.36-7.89,22.36-6.57,7.21-7,11.75-7,11.75-2.62,15.39,22.43,55.21,28.5,63.56s14.23,5,14.23,5c9.95-3.08,9.57-13.37,9.57-13.37-.41-5.51-15-25.29-15-25.29-8-11.7,2.86-20,2.86-20,4.08-3.22,19.26-2.53,19.26-2.53C387.77,543.06,408.2,503.85,408.2,503.85Z" transform="translate(-292.94 -336.95)"/><path d="M645.31,567.37s-6.64-7.2-7.73-22.42c0,0-.21-17.64,14.09-30.1,0,0,6.82-18.11-28.84-66.72a13.8,13.8,0,0,0-9.46-5.64,11.66,11.66,0,0,0-5.47.51S598,446.46,599,455.59a12.74,12.74,0,0,0,2.28,5.88c2.41,3.45,8,11.54,10.31,15.14,3,4.64,8.15,10.19,4.42,20.94,0,0-2.87,6.33-16.22,6-.85,0-1.7,0-2.56.05l-4.57.27s20.14,39.36,0,82.2c0,0,15.18-.58,19.24,2.67,0,0,10.83,8.39,2.71,20,0,0-14.71,19.67-15.16,25.18,0,0-.45,10.28,9.48,13.44,0,0,8.12,3.43,14.26-4.87s31.47-47.94,29-63.35C652.19,579.16,651.83,574.62,645.31,567.37Z" transform="translate(-292.94 -336.95)"/><ellipse cx="383.02" cy="207.77" rx="32.09" ry="32.57"/><ellipse cx="207.09" cy="385.96" rx="32.09" ry="32.57"/><path d="M602.18,655.74c-3.15-9.93-13.44-9.48-13.44-9.48-5.51.45-25.18,15.16-25.18,15.16-11.64,8.12-20-2.71-20-2.71-3.25-4.06-2.67-19.24-2.67-19.24-42.84,20.14-82.2,0-82.2,0l-.27,4.57c0,.86-.07,1.71,0,2.56.34,13.35-6,16.22-6,16.22-10.75,3.73-16.3-1.47-20.94-4.42-3.6-2.28-11.69-7.9-15.14-10.31a12.75,12.75,0,0,0-5.87-2.28c-9.14-1-12.6,8.86-12.6,8.86a11.79,11.79,0,0,0-.51,5.47,13.84,13.84,0,0,0,5.64,9.46c48.61,35.66,66.73,28.84,66.73,28.84,12.45-14.3,30.09-14.09,30.09-14.09,15.22,1.09,22.42,7.73,22.42,7.73C529.42,698.6,534,699,534,699c15.41,2.51,55-22.83,63.35-29S602.18,655.74,602.18,655.74Z" transform="translate(-292.94 -336.95)"/></svg>